<svg width="32" height="16" viewBox="0 0 32 16" fill="none" xmlns="http://www.w3.org/2000/svg">
<path d="M31.707 8.89978C32.0976 8.50925 32.0976 7.87609 31.707 7.48556L25.3431 1.12159C24.9526 0.731069 24.3194 0.731068 23.9289 1.12159C23.5383 1.51212 23.5383 2.14528 23.9289 2.53581L29.5857 8.19267L23.9289 13.8495C23.5383 14.24 23.5383 14.8732 23.9289 15.2637C24.3194 15.6543 24.9525 15.6543 25.3431 15.2637L31.707 8.89978ZM-1.5315e-05 8.19263L-1.67675e-05 9.19263L30.9999 9.19267L30.9999 8.19267L30.9999 7.19267L-1.38723e-05 7.19263L-1.5315e-05 8.19263Z" fill="black"/>
</svg>
