<svg width="35" height="39" viewBox="0 0 35 39" fill="none" xmlns="http://www.w3.org/2000/svg">
<path d="M33.7076 2.38404C33.6413 2.17155 33.5327 1.97849 33.39 1.8193C33.2472 1.66011 33.074 1.53891 32.8833 1.46476C29.1222 -0.0770898 25.0473 -0.409705 21.1245 0.504933C17.2016 1.41957 13.589 3.54455 10.6997 6.63699C7.81033 9.72943 5.76076 13.6646 4.78526 17.9925C3.80977 22.3205 3.9477 26.8668 5.18329 31.1116L0.393931 36.4438C0.141701 36.7246 0 37.1055 0 37.5026C0 37.8997 0.141701 38.2806 0.393931 38.5614C0.646162 38.8422 0.988259 39 1.34497 39C1.70167 39 2.04377 38.8422 2.296 38.5614L7.09072 33.2233C9.22666 33.9668 11.4504 34.3506 13.6883 34.362C16.4866 34.3696 19.2585 33.7607 21.8445 32.5705C24.4305 31.3803 26.7795 29.6323 28.7561 27.4271C31.6293 24.2051 33.6205 20.1399 34.4972 15.7058C35.3739 11.2717 35.1001 6.65145 33.7076 2.38404ZM26.8607 25.3169C24.593 27.8282 21.7853 29.6508 18.7052 30.6109C15.6251 31.571 12.3755 31.6365 9.26623 30.8012L22.9641 15.5376C23.2154 15.2567 23.3563 14.8763 23.3556 14.4798C23.355 14.0834 23.213 13.7035 22.9607 13.4237C22.7085 13.1438 22.3668 12.987 22.0107 12.9877C21.6546 12.9884 21.3134 13.1466 21.062 13.4274L7.36416 28.6851C6.57352 25.0793 6.66524 21.3035 7.6298 17.7506C8.59436 14.1977 10.3965 10.9975 12.8487 8.48292C15.3009 5.96838 18.3136 4.23142 21.5732 3.45277C24.8329 2.67413 28.2204 2.88224 31.3833 4.05547C32.4608 7.71944 32.6086 11.6435 31.8106 15.3951C31.0126 19.1466 29.2997 22.5801 26.8607 25.3169Z" fill="black"/>
</svg>
