<svg width="36" height="32" viewBox="0 0 36 32" fill="none" xmlns="http://www.w3.org/2000/svg">
<path d="M25.7648 11.5514C28.0798 13.0276 30.9158 13.8962 33.9789 13.8962V8.63823C33.3992 8.63834 32.821 8.58442 32.2538 8.47723V12.616C29.1911 12.616 26.3554 11.7474 24.0398 10.2713V21.0012C24.0398 26.3689 19.1619 30.72 13.1451 30.72C10.9001 30.72 8.81343 30.1145 7.08005 29.0761C9.05842 30.8806 11.8174 32.0001 14.8697 32.0001C20.8869 32.0001 25.765 27.649 25.765 22.2811V11.5514H25.7648ZM27.8928 6.24674C26.7097 5.09372 25.9329 3.60365 25.7648 1.95631V1.28003H24.1301C24.5416 3.37379 25.945 5.16257 27.8928 6.24674ZM10.8857 24.9572C10.2247 24.184 9.86746 23.2382 9.86906 22.2657C9.86906 19.8108 12.1002 17.8202 14.8528 17.8202C15.3657 17.8201 15.8757 17.8902 16.3645 18.0286V12.6531C15.7932 12.5833 15.2166 12.5536 14.6402 12.5645V16.7485C14.151 16.6101 13.6409 16.5398 13.1277 16.5403C10.3752 16.5403 8.14417 18.5306 8.14417 20.9859C8.14417 22.7219 9.25935 24.225 10.8857 24.9572Z" fill="#FF004F"/>
<path d="M24.0397 10.2712C26.3553 11.7473 29.191 12.6159 32.2538 12.6159V8.47712C30.5441 8.15227 29.0306 7.35529 27.8927 6.24674C25.9448 5.16246 24.5415 3.37368 24.13 1.28003H19.8361V22.2809C19.8264 24.7292 17.5991 26.7116 14.8524 26.7116C13.2339 26.7116 11.7959 26.0233 10.8852 24.9572C9.25903 24.225 8.14385 22.7218 8.14385 20.986C8.14385 18.5309 10.3748 16.5404 13.1274 16.5404C13.6548 16.5404 14.1631 16.6136 14.6399 16.7486V12.5646C8.72882 12.6735 3.97485 16.9821 3.97485 22.281C3.97485 24.9262 5.1587 27.3242 7.0801 29.0763C8.81347 30.1145 10.9001 30.7201 13.1451 30.7201C19.1621 30.7201 24.0398 26.3688 24.0398 21.0012V10.2712H24.0397Z" fill="black"/>
<path d="M32.2538 8.47707V7.35798C30.7121 7.36007 29.2007 6.97492 27.8927 6.24658C29.0506 7.37742 30.5753 8.15716 32.2538 8.47707ZM24.13 1.27998C24.0908 1.07988 24.0606 0.878468 24.0397 0.676285V0H18.111V21.0011C18.1016 23.449 15.8744 25.4314 13.1275 25.4314C12.321 25.4314 11.5596 25.2606 10.8853 24.9572C11.7959 26.0233 13.2339 26.7114 14.8525 26.7114C17.5989 26.7114 19.8266 24.7292 19.8362 22.281V1.27998H24.13ZM14.6402 12.5645V11.3732C14.1448 11.3128 13.6454 11.2825 13.1453 11.2827C7.12787 11.2826 2.25 15.6339 2.25 21.0011C2.25 24.366 4.16709 27.3316 7.08025 29.076C5.15886 27.324 3.97501 24.9259 3.97501 22.2808C3.97501 16.982 8.72885 12.6735 14.6402 12.5645Z" fill="#00F2EA"/>
</svg>
