<svg width="186" height="77" viewBox="0 0 186 77" fill="none" xmlns="http://www.w3.org/2000/svg">
<path d="M2.66121 38.7257C2.77411 24.7581 0.573954 7.3093 17.4086 3.26261C25.408 1.33971 36.4896 8.80078 39.6586 15.651C42.2873 21.3331 47.5794 27.4383 43.7708 33.9346C40.7792 39.0372 34.9482 41.7115 29.1807 39.4619C12.8022 33.0734 26.724 14.7982 36.8366 11.6426C50.6395 7.33547 81.9536 30.5403 76.4261 46.2459C71.6869 59.7118 58.5519 50.1355 60.8949 38.9493C64.1908 23.2137 72.4179 18.3015 89.3096 24.0385C102.499 28.518 108.624 45.7444 106.459 57.733C106.01 60.2229 107.395 75.189 105.477 74.6555C86.5442 69.3914 98.9177 39.7574 112.501 35.6351C128.107 30.8986 143.952 26.2843 159.266 32.3531C167.501 35.6165 188.322 51.9872 182.434 45.3691C175.066 37.0869 165.868 25.225 164.666 13.6413C164.309 10.1944 162.901 -0.784943 164.712 9.63035C166.577 20.3568 167.97 29.8486 171.616 39.5255C172.427 41.679 176.573 43.1065 178.385 44.3224C179.919 45.3522 173.059 46.6848 172.32 46.9923C165.937 49.6474 161.68 54.9742 158.075 60.6788C154.857 65.7704 152.201 73.4876 147.781 73.6579" stroke="black" stroke-width="4" stroke-linecap="round" stroke-linejoin="round"/>
</svg>
