<svg width="42" height="31" viewBox="0 0 42 31" fill="none" xmlns="http://www.w3.org/2000/svg">
<path d="M37.0261 30.4872C38.1007 30.4872 39.1313 30.1303 39.8912 29.495C40.6511 28.8597 41.078 27.9981 41.078 27.0997V18.8275C41.078 17.9291 40.6511 17.0675 39.8912 16.4322C39.1313 15.797 38.1007 15.4401 37.0261 15.4401H31.4021C31.4021 14.2511 31.4872 13.0587 31.6533 11.8697C31.9045 10.6095 32.3259 9.48829 32.9094 8.50931C33.4969 7.52695 34.2505 6.75799 35.1744 6.19567C36.0941 5.5656 37.2651 5.25057 38.6914 5.25057V0C36.3454 0 34.2951 0.420046 32.5325 1.26014C30.7853 2.09171 29.2831 3.23995 28.1363 4.6205C26.9852 6.14254 26.1368 7.81047 25.6241 9.55942C25.1074 11.4895 24.8546 13.4623 24.8704 15.4401V27.0997C24.8704 27.9981 25.2973 28.8597 26.0572 29.495C26.8171 30.1303 27.8477 30.4872 28.9223 30.4872H37.0261ZM12.7148 30.4872C13.7894 30.4872 14.82 30.1303 15.5799 29.495C16.3398 28.8597 16.7667 27.9981 16.7667 27.0997V18.8275C16.7667 17.9291 16.3398 17.0675 15.5799 16.4322C14.82 15.797 13.7894 15.4401 12.7148 15.4401H7.0908C7.0908 14.2511 7.17589 13.0587 7.34202 11.8697C7.59323 10.6095 8.01463 9.48829 8.5981 8.50931C9.18562 7.52695 9.93927 6.75799 10.8631 6.19567C11.7829 5.5656 12.9539 5.25057 14.3801 5.25057V0C12.0341 0 9.98384 0.420046 8.22127 1.26014C6.47405 2.09171 4.97184 3.23995 3.82499 4.6205C2.67395 6.14254 1.82557 7.81047 1.31282 9.55942C0.796152 11.4895 0.543315 13.4623 0.559174 15.4401V27.0997C0.559174 27.9981 0.986067 28.8597 1.74594 29.495C2.50582 30.1303 3.53643 30.4872 4.61105 30.4872H12.7148Z" fill="#1E1E1E"/>
</svg>
