<svg width="14" height="17" viewBox="0 0 14 17" fill="none" xmlns="http://www.w3.org/2000/svg">
<path d="M13.4141 7.40293L3.11348 0.368261C2.94429 0.251562 2.74301 0.158936 2.52124 0.095725C2.29947 0.0325142 2.0616 -3.01072e-05 1.82135 -3.01072e-05C1.5811 -3.01072e-05 1.34323 0.0325142 1.12146 0.095725C0.899685 0.158936 0.698402 0.251562 0.529218 0.368261C0.19026 0.601541 4.76837e-06 0.917107 4.76837e-06 1.24604C4.76837e-06 1.57497 0.19026 1.89054 0.529218 2.12382L9.53773 8.34918L0.529218 14.5123C0.19026 14.7456 4.76837e-06 15.0611 4.76837e-06 15.3901C4.76837e-06 15.719 0.19026 16.0346 0.529218 16.2679C0.697768 16.3855 0.898767 16.4791 1.12057 16.5432C1.34237 16.6073 1.58056 16.6407 1.82135 16.6414C2.06213 16.6407 2.30033 16.6073 2.52213 16.5432C2.74393 16.4791 2.94493 16.3855 3.11348 16.2679L13.4141 9.23319C13.5988 9.1166 13.7463 8.97509 13.8471 8.81759C13.9479 8.66009 14 8.49 14 8.31806C14 8.14611 13.9479 7.97603 13.8471 7.81853C13.7463 7.66103 13.5988 7.51952 13.4141 7.40293Z" fill="black"/>
</svg>
