<svg width="32" height="32" viewBox="0 0 32 32" fill="none" xmlns="http://www.w3.org/2000/svg">
<path d="M0 31.5L2.26007 23.5395C0.865444 21.2093 0.13263 18.5678 0.13397 15.8592C0.137989 7.39104 7.28527 0.5 16.067 0.5C20.3286 0.501292 24.3289 2.10167 27.3379 5.00533C30.3455 7.909 32.0013 11.7685 32 15.8734C31.996 24.3429 24.8487 31.2339 16.067 31.2339C13.401 31.2326 10.7738 30.5881 8.44679 29.3636L0 31.5ZM8.83798 26.5826C11.0833 27.8678 13.2268 28.6377 16.0616 28.639C23.3603 28.639 29.3059 22.9117 29.3099 15.8708C29.3126 8.81575 23.3951 3.09625 16.0723 3.09367C8.76831 3.09367 2.82676 8.82092 2.82408 15.8605C2.82274 18.7345 3.69622 20.8864 5.16319 23.1377L3.82483 27.8497L8.83798 26.5826ZM24.0931 19.525C23.994 19.3648 23.7287 19.2692 23.3295 19.0767C22.9316 18.8843 20.9743 17.9556 20.6086 17.8277C20.2442 17.6998 19.9789 17.6353 19.7123 18.0202C19.447 18.4038 18.6834 19.2692 18.4516 19.525C18.2199 19.7807 17.9868 19.813 17.5889 19.6205C17.191 19.4281 15.9076 19.0238 14.387 17.7153C13.2041 16.6975 12.4043 15.4407 12.1725 15.0558C11.9407 14.6722 12.1484 14.4642 12.3466 14.273C12.5262 14.1012 12.7445 13.8248 12.9441 13.6001C13.1464 13.3779 13.2121 13.2177 13.3461 12.9607C13.4787 12.705 13.413 12.4802 13.3126 12.2878C13.2121 12.0966 12.4163 10.2069 12.0854 9.43833C11.7612 8.69046 11.433 8.79121 11.1891 8.77958L10.4255 8.76667C10.1603 8.76667 9.72888 8.86225 9.36448 9.24717C9.00008 9.63208 7.9712 10.5595 7.9712 12.4492C7.9712 14.3389 9.39797 16.164 9.59625 16.4198C9.79586 16.6755 12.4029 20.5531 16.3965 22.2155C17.3464 22.6108 18.0886 22.8471 18.666 23.0241C19.6199 23.316 20.488 23.2747 21.1739 23.1765C21.9389 23.0667 23.5291 22.2478 23.8613 21.3514C24.1936 20.4537 24.1936 19.6851 24.0931 19.525Z" fill="#25D366"/>
</svg>
